<?xml version="1.0" encoding="UTF-8" standalone="no"?>
<!-- Created with Inkscape (http://www.inkscape.org/) -->

<svg
	xmlns:dc="http://purl.org/dc/elements/1.1/"
	xmlns:cc="http://creativecommons.org/ns#"
	xmlns:rdf="http://www.w3.org/1999/02/22-rdf-syntax-ns#"
	xmlns="http://www.w3.org/2000/svg"
	xmlns:sodipodi="http://sodipodi.sourceforge.net/DTD/sodipodi-0.dtd"
	xmlns:inkscape="http://www.inkscape.org/namespaces/inkscape"
	width="987"
	height="432.5954"
	id="svg2"
	version="1.1"
	inkscape:version="0.48.4 r9939"
	inkscape:export-filename="C:\Users\sr41756\Desktop\bitmap.png"
	inkscape:export-xdpi="135"
	inkscape:export-ydpi="135"
	sodipodi:docname="New document 1">
  <defs
     id="defs4" />
  <sodipodi:namedview
     id="base"
     pagecolor="#ffffff"
     bordercolor="#666666"
     borderopacity="1.0"
     inkscape:pageopacity="0.0"
     inkscape:pageshadow="2"
     inkscape:zoom="0.98994949"
     inkscape:cx="563.16939"
     inkscape:cy="129.69791"
     inkscape:document-units="px"
     inkscape:current-layer="layer1"
     showgrid="false"
     fit-margin-top="0"
     fit-margin-left="0"
     fit-margin-right="0"
     fit-margin-bottom="0"
     inkscape:window-width="1858"
     inkscape:window-height="1058"
     inkscape:window-x="54"
     inkscape:window-y="-8"
     inkscape:window-maximized="1" />
  <metadata
     id="metadata7">
    <rdf:RDF>
      <cc:Work
         rdf:about="">
        <dc:format>image/svg+xml</dc:format>
        <dc:type
           rdf:resource="http://purl.org/dc/dcmitype/StillImage" />
        <dc:title></dc:title>
      </cc:Work>
    </rdf:RDF>
  </metadata>
  <g
     inkscape:label="Layer 1"
     inkscape:groupmode="layer"
     id="layer1"
     transform="translate(141.041,-214.15351)">
    <path
       inkscape:connector-curvature="0"
       id="path3000"
       d="m -130.041,646.74892 -11,0 0,-216.29771 0,-216.2977 11,0 11,0 0,216.2977 0,216.29771 -11,0 z m 43.999997,0 -3,0 0,-216.29771 0,-216.2977 3,0 3,0 0,216.2977 0,216.29771 -3,0 z m 52.5,0 -2.5,0 0,-216.29771 0,-216.2977 2.5,0 2.5,0 0,216.2977 0,216.29771 -2.5,0 z m 105,0 -19.5,0 0,-216.29771 0,-216.2977 19.5,0 19.5,0 0,216.2977 0,216.29771 -19.5,0 z m 52.500003,0 -2,0 0,-216.29771 0,-216.2977 2,0 2,0 0,216.2977 0,216.29771 -2,0 z m 62,0 -29,0 0,-216.29771 0,-216.2977 29,0 29,0 0,216.2977 0,216.29771 -29,0 z m 87.5,0 -28.5,0 0,-216.29771 0,-216.2977 28.5,0 28.5,0 0,216.2977 0,216.29771 -28.5,0 z m 79,0 -20.5,0 0,-216.29771 0,-216.2977 20.5,0 20.5,0 0,216.2977 0,216.29771 -20.5,0 z m 53,0 -2.5,0 0,-216.29771 0,-216.2977 2.5,0 2.5,0 0,216.2977 0,216.29771 -2.5,0 z m 43.5,0 -11,0 0,-216.29771 0,-216.2977 11,0 11,0 0,216.2977 0,216.29771 -11,0 z m 79,0 -3,0 0,-216.29771 0,-216.2977 3,0 3,0 0,216.2977 0,216.29771 -3,0 z m 53,0 -20,0 0,-216.29771 0,-216.2977 20,0 20,0 0,216.2977 0,216.29771 -20,0 z m 61,0 -11,0 0,-216.29771 0,-216.2977 11,0 11,0 0,216.2977 0,216.29771 -11,0 z m 96.5,0 -20.5,0 0,-216.29771 0,-216.2977 20.5,0 20.5,0 0,216.2977 0,216.29771 -20.5,0 z m 53,0 -2.5,0 0,-216.29771 0,-216.2977 2.5,0 2.5,0 0,216.2977 0,216.29771 -2.5,0 z m 43.5,0 -11,0 0,-216.29771 0,-216.2977 11,0 11,0 0,216.2977 0,216.29771 -11,0 z"
       style="fill:#050505" />
  </g>
</svg>
