<?xml version="1.0" encoding="UTF-8" standalone="no"?>
<!-- Created with Inkscape (http://www.inkscape.org/) -->

<svg
	xmlns:dc="http://purl.org/dc/elements/1.1/"
	xmlns:cc="http://creativecommons.org/ns#"
	xmlns:rdf="http://www.w3.org/1999/02/22-rdf-syntax-ns#"
	xmlns="http://www.w3.org/2000/svg"
	xmlns:sodipodi="http://sodipodi.sourceforge.net/DTD/sodipodi-0.dtd"
	xmlns:inkscape="http://www.inkscape.org/namespaces/inkscape"
	width="512"
	height="512"
	id="svg2"
	version="1.1"
	inkscape:version="0.48.4 r9939"
	sodipodi:docname="jhi_barcode.svg"
	inkscape:export-filename="C:\Users\sr41756\Desktop\ic_launcher.png"
	inkscape:export-xdpi="12.65625"
	inkscape:export-ydpi="12.65625">
  <defs
     id="defs4" />
  <sodipodi:namedview
     id="base"
     pagecolor="#ffffff"
     bordercolor="#666666"
     borderopacity="1.0"
     inkscape:pageopacity="0.0"
     inkscape:pageshadow="2"
     inkscape:zoom="1.4807183"
     inkscape:cx="269.58461"
     inkscape:cy="255.18543"
     inkscape:document-units="px"
     inkscape:current-layer="layer1"
     showgrid="true"
     fit-margin-top="0"
     fit-margin-left="0"
     fit-margin-right="0"
     fit-margin-bottom="0"
     borderlayer="true"
     inkscape:window-width="1858"
     inkscape:window-height="1058"
     inkscape:window-x="54"
     inkscape:window-y="-8"
     inkscape:window-maximized="1">
    <inkscape:grid
       type="xygrid"
       id="grid3018"
       empspacing="8"
       visible="true"
       enabled="true"
       snapvisiblegridlinesonly="true" />
  </sodipodi:namedview>
  <metadata
     id="metadata7">
    <rdf:RDF>
      <cc:Work
         rdf:about="">
        <dc:format>image/svg+xml</dc:format>
        <dc:type
           rdf:resource="http://purl.org/dc/dcmitype/StillImage" />
        <dc:title></dc:title>
      </cc:Work>
    </rdf:RDF>
  </metadata>
  <g
     inkscape:label="Layer 1"
     inkscape:groupmode="layer"
     id="layer1"
     transform="translate(-521.31417,-501.848)">
    <g
       id="g2991"
       transform="matrix(0.93749995,0,0,0.93750004,48.582162,47.365459)">
      <path
         inkscape:connector-curvature="0"
         id="path3095"
         d="m 573.79417,501.84806 c -1.04083,0.008 -3.71863,0.0836 -7.30353,0.60235 l 0,48.30117 c 2.47255,-0.55665 4.96251,-1.07512 7.52941,-1.58117 l 0,-47.32235 -0.22588,0 z m 30.34353,0 0,43.03058 c 2.48228,-0.21711 4.98873,-0.41197 7.52941,-0.5647 l 0,-42.46588 -7.52941,0 z m 15.05882,0 0,42.12705 c 2.95238,-0.0966 5.93775,-0.15058 8.96,-0.15058 2.04029,0 4.06464,0.0293 6.09883,0.0753 l 0,-42.05176 -15.05883,0 z m 22.58824,0 0,42.35294 c 7.57368,0.38404 15.11027,1.04666 22.58823,2.07058 l 0,-44.42352 -22.58823,0 z m 45.17647,0 0,48.52705 c 5.04951,1.14398 10.06367,2.43595 15.05882,3.87765 l 0,-52.4047 -15.05882,0 z m 37.64706,0 0,60.04705 c 2.51453,0.97013 5.03123,1.96401 7.52941,3.01177 l 0,-63.05882 -7.52941,0 z m 15.05882,0 0,66.33411 c 2.53078,1.14818 5.01664,2.3478 7.52941,3.57647 l 0,-69.91058 -7.52941,0 z m 30.11765,0 0,81.91999 c 4.94494,2.62883 9.96518,5.09001 15.05882,7.37882 l 0,-89.29881 -15.05882,0 z m 37.64706,0 0,98.18352 c 2.5034,0.84735 4.99514,1.67614 7.52941,2.44706 l 0,-100.63058 -7.52941,0 z m 30.11764,0 0,106.39058 c 2.49297,0.52028 5.0103,0.97987 7.52942,1.43058 l 0,-107.82116 -7.52942,0 z m 15.05883,0 0,109.06352 c 4.97457,0.74597 9.98837,1.36565 15.05882,1.8447 l 0,-110.90822 -15.05882,0 z m 37.64706,0 0,112.15058 c 1.6822,0.0281 3.35319,0.0376 5.0447,0.0376 0.83121,0 1.65705,0.007 2.48471,0 l 0,-112.18822 -7.52941,0 z m 15.05882,0 0,111.99999 c 2.53046,-0.082 5.03784,-0.161 7.52941,-0.30118 l 0,-111.69881 -7.52941,0 z m 30.11765,0 0,109.66587 c 5.14408,-0.64399 10.16547,-1.42842 15.05882,-2.25882 l 0,-107.40705 -15.05882,0 z m 37.64706,0 0,102.85175 c 8.09817,-1.90622 15.63626,-3.96229 22.58823,-6.06117 l 0,-95.17176 c -4.40658,-1.03116 -9.33502,-1.61882 -14.83294,-1.61882 l -7.75529,0 z m 30.11762,3.99059 0,90.42822 c 2.6217,-0.85175 5.1283,-1.72268 7.5294,-2.56 l 0,-83.91528 c -2.2759,-1.48351 -4.7717,-2.82964 -7.5294,-3.95294 z m -451.76468,0.71529 c -2.49447,1.02836 -5.03788,2.27484 -7.52941,3.80235 l 0,46.45647 c 2.43481,-0.7581 4.95876,-1.49593 7.52941,-2.22118 l 0,-48.03764 z m 466.82348,9.44941 0,75.03058 c 6.0023,-2.24289 11.0712,-4.33729 15.0589,-6.06117 l 0,-29.10118 c -0.034,-3.54229 -0.8426,-25.0799 -15.0589,-39.86823 z m -481.88231,0.0753 c -8.49643,7.97363 -15.05882,20.40554 -15.05882,39.79293 l 0,8.99765 c 4.5907,-1.86157 9.62253,-3.75323 15.05882,-5.60941 l 0,-43.18117 z"
         style="fill:#6ba62e;fill-opacity:1;fill-rule:nonzero;stroke:none" />
      <path
         inkscape:connector-curvature="0"
         id="path3099"
         d="m 1033.3142,782.73273 c -4.3944,1.76299 -9.4445,3.64126 -15.0589,5.60941 l 0,211.27527 c 8.5049,-7.97185 15.0589,-20.40112 15.0589,-39.79293 l 0,-177.09175 z m -22.5883,8.16941 c -2.422,0.79329 -4.9374,1.58031 -7.5294,2.37177 l 0,215.86819 c 2.5018,-1.0313 5.0319,-2.3077 7.5294,-3.84 l 0,-214.39996 z m -15.05879,4.59294 c -7.03537,1.99614 -14.5782,3.95403 -22.58823,5.72236 l 0,212.63056 7.71764,0 c 1.72773,-0.019 7.62292,-0.2538 14.87059,-2.1835 l 0,-216.16942 z"
         style="fill:#6ba62e;fill-opacity:1;fill-rule:nonzero;stroke:none" />
      <path
         inkscape:connector-curvature="0"
         id="path3103"
         d="m 844.51417,805.77273 0,208.07527 0.56471,0 0,-207.99998 c -0.18642,-0.0308 -0.37841,-0.0441 -0.56471,-0.0753 z m 8.09412,1.24235 0,206.83292 15.05882,0 0,-205.1388 c -5.06157,-0.44876 -10.08224,-0.99997 -15.05882,-1.69412 z m 60.23529,2.44706 c -2.49591,0.13042 -4.9946,0.22533 -7.52941,0.30118 l 0,204.08468 7.52941,0 0,-204.38586 z m -22.58823,0.41412 0,203.97174 7.52941,0 0,-203.93409 c -0.81811,0.006 -1.62531,0.0376 -2.44706,0.0376 l -0.0376,0 c -1.69346,0 -3.35979,-0.0486 -5.0447,-0.0753 z"
         style="fill:#6ba62e;fill-opacity:1;fill-rule:nonzero;stroke:none" />
      <path
         inkscape:connector-curvature="0"
         id="path3107"
         d="m 739.66711,766.43156 0,247.41644 7.52941,0 0,-243.53879 c -2.50259,-1.34349 -5.00704,-2.62046 -7.52941,-3.87765 z m 30.11765,15.84941 0,231.56703 15.05882,0 0,-224.9035 c -5.08348,-2.07027 -10.10259,-4.288 -15.05882,-6.66353 z m 37.64706,14.72 0,216.84703 7.52941,0 0,-214.62586 c -2.52444,-0.70335 -5.03162,-1.44911 -7.52941,-2.22117 z"
         style="fill:#6ba62e;fill-opacity:1;fill-rule:nonzero;stroke:none" />
      <path
         inkscape:connector-curvature="0"
         id="path3111"
         d="m 629.36123,739.7398 0,274.1082 4.89412,0 0,-255.99997 0,-18.03294 c -1.63427,-0.0402 -3.25564,-0.0676 -4.89412,-0.0753 z m 12.42353,0.37647 0,17.73176 0,255.99997 22.58823,0 0,-255.99997 0,-15.39765 c -7.47799,-1.12123 -15.00749,-1.91386 -22.58823,-2.33411 z m 45.17647,6.81411 0,10.91765 0,255.99997 15.05882,0 0,-255.99997 0,-6.66353 c -4.98811,-1.5773 -10.01187,-3.00166 -15.05882,-4.25412 z"
         style="fill:#811c76;fill-opacity:1;fill-rule:nonzero;stroke:none" />
      <path
         inkscape:connector-curvature="0"
         id="path3115"
         d="m 574.02005,745.34921 c -2.55531,0.52119 -5.07678,1.08738 -7.52941,1.65647 l 0,10.84235 0,255.62347 c 2.31953,0.2378 4.73974,0.3765 7.30353,0.3765 l 0.22588,0 0,-255.99997 0,-12.49882 z m -22.58823,5.57176 c -2.59525,0.75152 -5.0939,1.51851 -7.52941,2.29647 l 0,4.63059 0,248.05637 c 2.27635,1.4836 4.77122,2.8297 7.52941,3.953 l 0,-252.00937 0,-6.92706 z m -15.05883,4.81883 c -5.54103,1.94079 -10.59672,3.89883 -15.05882,5.75999 l 0,198.32469 c 0.0342,3.54229 0.84017,25.0799 15.05882,39.86823 l 0,-241.84468 0,-2.10823 z"
         style="fill:#811c76;fill-opacity:1;fill-rule:nonzero;stroke:none" />
      <path
         inkscape:connector-curvature="0"
         id="path3119"
         d="m 628.15652,565.50923 c -3.02106,0 -6.01227,0.0447 -8.96,0.15059 l 0,65.27999 c 2.95299,-0.0966 5.9375,-0.15059 8.96,-0.15059 2.04029,0 4.06464,0.0293 6.09883,0.0753 l 0,-65.24235 c -2.02622,-0.0499 -4.06625,-0.11288 -6.09883,-0.11288 z m 13.62824,0.37647 0,65.27999 c 7.57368,0.38381 15.11027,1.0472 22.58823,2.07059 l 0,-65.05411 c -7.4793,-1.11933 -15.00711,-1.87696 -22.58823,-2.29647 z m -30.11765,0.18824 c -2.54553,0.16782 -5.04701,0.3645 -7.52941,0.60235 l 0,65.16705 c 2.48171,-0.21678 4.98959,-0.41222 7.52941,-0.56471 l 0,-65.20469 z m -37.64706,5.27058 c -2.56719,0.55205 -5.0714,1.16642 -7.52941,1.76941 l 0,64.60235 c 2.46246,-0.55355 4.97353,-1.11538 7.52941,-1.61882 l 0,-64.75294 z m 112.94118,1.3553 0,64.63999 c 5.04951,1.14349 10.06367,2.43643 15.05882,3.87765 l 0,-64.26353 c -4.99508,-1.57939 -10.00474,-3.00123 -15.05882,-4.25411 z m -135.52941,4.55529 c -2.59119,0.79636 -5.10974,1.58804 -7.52941,2.40941 l 0,64.07529 c 2.43568,-0.75735 4.95781,-1.49668 7.52941,-2.22118 l 0,-64.26352 z m -15.05883,5.08235 c -5.62036,2.09538 -10.66946,4.21603 -15.05882,6.17412 l 0,63.2847 c 4.5907,-1.85994 9.6212,-3.7553 15.05882,-5.60941 l 0,-63.84941 z m 188.2353,2.93647 0,63.54823 c 2.51807,0.97121 5.02773,2.00033 7.52941,3.04941 l 0,-63.2847 c -2.50654,-1.15497 -5.00473,-2.24401 -7.52941,-3.31294 z m 15.05882,6.92706 0,62.90823 c 2.53128,1.14824 5.01614,2.38532 7.52941,3.61412 l 0,-62.6447 c -2.49763,-1.3437 -5.01204,-2.62173 -7.52941,-3.87765 z m 30.11765,15.88706 0,62.6447 c 4.94494,2.62981 9.96518,5.08928 15.05882,7.37882 l 0,-63.32235 c -5.08721,-2.0745 -10.09893,-4.32155 -15.05882,-6.70117 z m 263.52944,0.41412 c -4.382,1.75856 -9.4639,3.68306 -15.0589,5.64705 l 0,63.81176 c 6.0004,-2.24297 11.0729,-4.29964 15.0589,-6.02353 l 0,-63.43528 z m -22.5883,8.20705 c -2.4252,0.79536 -4.9338,1.57822 -7.5294,2.37177 l 0,64.15058 c 2.6112,-0.8486 5.1371,-1.72572 7.5294,-2.56 l 0,-63.96235 z m -15.05879,4.59294 c -7.03019,1.99695 -14.58614,3.91644 -22.58823,5.68471 l 0,64.67764 c 8.09829,-1.9068 15.63714,-3.99955 22.58823,-6.09882 l 0,-64.26353 z m -188.23529,1.54353 0,64.15058 c 2.50192,0.84702 4.99667,1.67644 7.52941,2.44706 l 0,-64.37646 c -2.52573,-0.70409 -5.0305,-1.4479 -7.52941,-2.22118 z m 30.11764,7.49177 0,64.86587 c 2.49297,0.52037 5.0103,0.97981 7.52942,1.43059 l 0,-64.94117 c -2.52026,-0.41612 -5.03241,-0.8751 -7.52942,-1.35529 z m 112.94118,0.97882 c -4.90222,0.7772 -9.92285,1.47215 -15.05882,2.07059 l 0,65.05411 c 5.14557,-0.64451 10.16451,-1.39029 15.05882,-2.22118 l 0,-64.90352 z m -97.88235,1.50588 0,65.05411 c 4.97457,0.74606 9.98837,1.36562 15.05882,1.84471 l 0,-65.16705 c -5.06427,-0.44346 -10.0803,-1.04184 -15.05882,-1.73177 z m 60.23529,2.48471 c -2.48343,0.12894 -5.00767,0.22576 -7.52941,0.30117 l 0,65.2047 c 2.51863,-0.0819 5.0494,-0.16169 7.52941,-0.30117 l 0,-65.2047 z m -22.58823,0.41412 0,65.24234 c 1.6822,0.0281 3.35319,0.0376 5.0447,0.0376 0.83155,-1.1e-4 1.65673,0.007 2.48471,0 l 0,-65.27999 c -0.82527,0.006 -1.65583,0.0376 -2.48471,0.0376 -1.68442,0 -3.36864,-0.012 -5.0447,-0.0376 z"
         style="fill:#6ba62e;fill-opacity:1;fill-rule:nonzero;stroke:none" />
      <path
         inkscape:connector-curvature="0"
         id="path3123"
         d="m 628.15652,652.47392 c -3.02106,0 -6.01227,0.0447 -8.96,0.15059 l 0,65.58117 c 2.95254,-0.0966 5.93809,-0.18823 8.96,-0.18823 2.04029,0 4.06464,0.0293 6.09883,0.0753 l 0,-65.54352 c -2.02605,-0.0498 -4.06643,-0.0753 -6.09883,-0.0753 z m 13.62824,0.37648 0,65.54352 c 7.57502,0.38412 15.10897,1.084 22.58823,2.10823 l 0,-65.35528 c -7.4793,-1.11871 -15.00711,-1.87725 -22.58823,-2.29647 z m -30.11765,0.15058 c -2.54563,0.16783 -5.04691,0.40215 -7.52941,0.64 l 0,65.43058 c 2.48151,-0.21694 4.98987,-0.41209 7.52941,-0.5647 l 0,-65.50588 z m -37.64706,5.30824 c -2.56618,0.55185 -5.07233,1.129 -7.52941,1.73176 l 0,64.90352 c 2.46259,-0.55385 4.97345,-1.07744 7.52941,-1.58117 l 0,-65.05411 z m 112.94118,1.35529 0,64.90352 c 5.04928,1.14393 10.06388,2.43603 15.05882,3.87765 l 0,-64.5647 c -4.99302,-1.57807 -10.00685,-2.96465 -15.05882,-4.21647 z m -135.52941,4.5553 c -2.59281,0.79687 -5.10834,1.5875 -7.52941,2.40941 l 0,64.37646 c 2.43415,-0.75707 4.95953,-1.49686 7.52941,-2.22118 l 0,-64.56469 z m -15.05883,5.08235 c -5.62036,2.09538 -10.66946,4.17836 -15.05882,6.13647 l 0,63.62352 c 4.5907,-1.85993 9.62076,-3.7548 15.05882,-5.60941 l 0,-64.15058 z m 188.2353,2.93647 0,63.8494 c 2.51453,0.97013 5.03123,1.96401 7.52941,3.01177 l 0,-63.54823 c -2.50448,-1.15387 -5.00682,-2.24502 -7.52941,-3.31294 z m 15.05882,6.92706 0,63.2094 c 2.53078,1.14818 5.01664,2.3478 7.52941,3.57647 l 0,-62.90823 c -2.49763,-1.34363 -5.01204,-2.62185 -7.52941,-3.87764 z m 30.11765,15.88705 0,62.79529 0,0.15059 c 4.94334,2.62782 9.96687,5.09078 15.05882,7.37882 l 0,-7.52941 0,-56.13176 c -5.08616,-2.07451 -10.09993,-4.28416 -15.05882,-6.66353 z m 263.52944,0.41412 c -4.382,1.75714 -9.4639,3.68404 -15.0589,5.64706 l 0,56.73411 0,7.37882 c 5.9888,-2.23856 11.0756,-4.30131 15.0589,-6.02353 l 0,-1.35529 0,-62.38117 z m -22.5883,8.20706 c -2.4252,0.79506 -4.9338,1.57844 -7.5294,2.37176 l 0,51.80235 0,12.64941 c 2.6225,-0.85196 5.1274,-1.72239 7.5294,-2.56 l 0,-10.08941 0,-54.17411 z m -15.05879,4.59294 c -7.03019,1.99653 -14.58614,3.91637 -22.58823,5.6847 l 0,43.89647 0,21.0447 c 8.09013,-1.90466 15.64189,-3.96404 22.58823,-6.06117 l 0,-14.98353 0,-49.58117 z m -188.23529,1.54353 0,48.03764 0,16.37647 c 2.50347,0.84735 4.99506,1.67614 7.52941,2.44706 l 0,-18.82353 0,-45.85411 c -2.52482,-0.70409 -5.0314,-1.4103 -7.52941,-2.18353 z m 30.11764,7.49176 0,40.54588 0,24.58353 c 2.49314,0.52028 5.0101,0.97987 7.52942,1.43058 l 0,-26.01411 0,-39.19058 c -2.51969,-0.41623 -5.03296,-0.87501 -7.52942,-1.3553 z m 112.94118,0.94118 c -4.90222,0.77749 -9.92285,1.50936 -15.05882,2.10823 l 0,37.49647 0,27.85882 c 5.14239,-0.64417 10.16708,-1.39074 15.05882,-2.22118 l 0,-25.63764 0,-39.6047 z m -97.88235,1.54353 0,38.06117 0,27.29411 c 4.96488,0.74443 9.99829,1.32847 15.05882,1.80706 l 0,-29.10117 0,-36.32941 c -5.06418,-0.4437 -10.08039,-1.0415 -15.05882,-1.73176 z m 60.23529,2.44706 c -2.48356,0.12925 -5.00753,0.26307 -7.52941,0.33882 l 0,35.27529 0,30.23058 c 2.53024,-0.082 5.03806,-0.16104 7.52941,-0.30117 l 0,-29.92941 0,-35.61411 z m -22.58823,0.45176 0,35.16235 0,30.38117 c 1.68243,0.0281 3.35295,0.0376 5.0447,0.0376 0.83115,0 1.65711,-0.031 2.48471,-0.0376 l 0,-30.38117 0,-35.16235 c -0.82527,0.006 -1.65583,0.0376 -2.48471,0.0376 -1.68442,0 -3.36864,-0.012 -5.0447,-0.0376 z"
         style="fill:#5c9bc1;fill-opacity:1;fill-rule:nonzero;stroke:none" />
    </g>
  </g>
</svg>
