<?xml version="1.0" encoding="UTF-8" standalone="no"?>
<!-- Created with Inkscape (http://www.inkscape.org/) -->

<svg
	xmlns:dc="http://purl.org/dc/elements/1.1/"
	xmlns:cc="http://creativecommons.org/ns#"
	xmlns:rdf="http://www.w3.org/1999/02/22-rdf-syntax-ns#"
	xmlns="http://www.w3.org/2000/svg"
	xmlns:sodipodi="http://sodipodi.sourceforge.net/DTD/sodipodi-0.dtd"
	xmlns:inkscape="http://www.inkscape.org/namespaces/inkscape"
	viewBox="0 0 112 256"
	id="svg2"
	version="1.1"
	inkscape:version="0.91 r13725"
	sodipodi:docname="marker_user-v2.svg"
	inkscape:export-filename="C:\Users\sr41756\Desktop\marker_user.png"
	inkscape:export-xdpi="25.714285"
	inkscape:export-ydpi="25.714285">
  <sodipodi:namedview
     id="base"
     pagecolor="#ffffff"
     bordercolor="#666666"
     borderopacity="1.0"
     inkscape:pageopacity="0.0"
     inkscape:pageshadow="2"
     inkscape:zoom="2.0405235"
     inkscape:cx="-4.2638892"
     inkscape:cy="101.21433"
     inkscape:document-units="px"
     inkscape:current-layer="layer1"
     showgrid="true"
     inkscape:window-width="1920"
     inkscape:window-height="1018"
     inkscape:window-x="-8"
     inkscape:window-y="-8"
     inkscape:window-maximized="1"
     fit-margin-top="0"
     fit-margin-left="0"
     fit-margin-right="0"
     fit-margin-bottom="0">
    <inkscape:grid
       type="xygrid"
       id="grid2987"
       empspacing="2"
       visible="true"
       enabled="true"
       snapvisiblegridlinesonly="true"
       originx="0px"
       originy="-1.1368684e-013px" />
  </sodipodi:namedview>
  <metadata
     id="metadata7">
    <rdf:RDF>
      <cc:Work
         rdf:about="">
        <dc:format>image/svg+xml</dc:format>
        <dc:type
           rdf:resource="http://purl.org/dc/dcmitype/StillImage" />
        <dc:title></dc:title>
      </cc:Work>
    </rdf:RDF>
  </metadata>
  <g
     inkscape:label="Layer 1"
     inkscape:groupmode="layer"
     id="layer1"
     transform="translate(0,-796.36218)">
    <path
       style="fill:#6ba62e;fill-opacity:1;stroke:none"
       d="m 0,0 112,0 0,128 -56,44 0,84 L 0,144 z"
       id="path3792"
       inkscape:connector-curvature="0"
       sodipodi:nodetypes="ccccccc"
       transform="translate(0,796.36218)" />
    <path
       inkscape:connector-curvature="0"
       d="m 56.818501,846.75891 c -6.757478,0 -12.230728,5.47325 -12.230728,12.23072 0,6.75748 5.47325,12.23073 12.230728,12.23073 6.757477,0 12.230726,-5.47325 12.230726,-12.23073 0,-6.75747 -5.473249,-12.23072 -12.230726,-12.23072 z m 27.335674,9.17304 C 82.747642,843.18142 72.626715,833.06048 59.876182,831.65396 l 0,-6.29883 -6.115364,0 0,6.29883 c -12.750532,1.40652 -22.871459,11.52746 -24.277993,24.27799 l -6.298825,0 0,6.11536 6.298825,0 c 1.406534,12.75048 11.527461,22.8715 24.277993,24.27802 l 0,6.29879 6.115364,0 0,-6.29879 c 12.750533,-1.40652 22.87146,-11.52754 24.277993,-24.27802 l 6.298825,0 0,-6.11536 -6.298825,0 z m -27.335674,24.46153 c -11.817942,0 -21.403773,-9.58591 -21.403773,-21.40385 0,-11.81794 9.585831,-21.40377 21.403773,-21.40377 11.81794,0 21.403772,9.58583 21.403772,21.40377 0,11.81794 -9.585832,21.40385 -21.403772,21.40385 z"
       id="path4142"
       style="fill:#ffffff" />
  </g>
</svg>
