<?xml version="1.0" encoding="UTF-8" standalone="no"?>
<!-- Created with Inkscape (http://www.inkscape.org/) -->

<svg
	xmlns:dc="http://purl.org/dc/elements/1.1/"
	xmlns:cc="http://creativecommons.org/ns#"
	xmlns:rdf="http://www.w3.org/1999/02/22-rdf-syntax-ns#"
	xmlns="http://www.w3.org/2000/svg"
	xmlns:sodipodi="http://sodipodi.sourceforge.net/DTD/sodipodi-0.dtd"
	xmlns:inkscape="http://www.inkscape.org/namespaces/inkscape"
	width="112"
	height="256"
	id="svg2"
	version="1.1"
	inkscape:version="0.48.4 r9939"
	sodipodi:docname="marker_user.svg"
	inkscape:export-filename="C:\Users\sr41756\Desktop\marker_user.png"
	inkscape:export-xdpi="25.714285"
	inkscape:export-ydpi="25.714285">
  <defs
     id="defs4" />
  <sodipodi:namedview
     id="base"
     pagecolor="#ffffff"
     bordercolor="#666666"
     borderopacity="1.0"
     inkscape:pageopacity="0.0"
     inkscape:pageshadow="2"
     inkscape:zoom="2.0405235"
     inkscape:cx="79.2931"
     inkscape:cy="101.21433"
     inkscape:document-units="px"
     inkscape:current-layer="layer1"
     showgrid="true"
     inkscape:window-width="1858"
     inkscape:window-height="1058"
     inkscape:window-x="54"
     inkscape:window-y="-8"
     inkscape:window-maximized="1"
     fit-margin-top="0"
     fit-margin-left="0"
     fit-margin-right="0"
     fit-margin-bottom="0">
    <inkscape:grid
       type="xygrid"
       id="grid2987"
       empspacing="2"
       visible="true"
       enabled="true"
       snapvisiblegridlinesonly="true"
       originx="0px"
       originy="-1.1368684e-013px" />
  </sodipodi:namedview>
  <metadata
     id="metadata7">
    <rdf:RDF>
      <cc:Work
         rdf:about="">
        <dc:format>image/svg+xml</dc:format>
        <dc:type
           rdf:resource="http://purl.org/dc/dcmitype/StillImage" />
        <dc:title></dc:title>
      </cc:Work>
    </rdf:RDF>
  </metadata>
  <g
     inkscape:label="Layer 1"
     inkscape:groupmode="layer"
     id="layer1"
     transform="translate(0,-796.36218)">
    <path
       style="fill:#6ba62e;fill-opacity:1;stroke:none"
       d="m 0,0 112,0 0,128 -56,44 0,84 L 0,144 z"
       id="path3792"
       inkscape:connector-curvature="0"
       transform="translate(0,796.36218)"
       sodipodi:nodetypes="ccccccc" />
    <g
       transform="translate(-1463.0015,196.34873)"
       id="User_1_"
       style="fill:#ffffff">
      <path
         style="fill:#ffffff"
         inkscape:connector-curvature="0"
         id="path5877"
         d="m 1518.998,634.444 c -10.652,0 -19.286,8.634 -19.286,19.287 0,10.656 8.634,19.289 19.286,19.289 10.656,0 19.29,-8.633 19.29,-19.289 0,-10.653 -8.634,-19.287 -19.29,-19.287 z m 0.94,34.563 c -5.749,0 -10.807,-3.775 -13.754,-9.49 h 27.508 c -2.947,5.714 -8.002,9.49 -13.754,9.49 z" />
      <path
         style="fill:#ffffff"
         inkscape:connector-curvature="0"
         id="path5879"
         d="m 1530.639,675.522 c -3.469,1.859 -7.433,2.92 -11.641,2.92 -4.204,0 -8.166,-1.059 -11.636,-2.92 -7.493,1.969 -13.367,6.635 -16.058,16.668 h 55.395 c -2.691,-10.035 -8.562,-14.701 -16.06,-16.668 z" />
    </g>
  </g>
</svg>
